<?xml version="1.0" standalone="no"?>
<!DOCTYPE svg PUBLIC "-//W3C//DTD SVG 20010904//EN"
 "http://www.w3.org/TR/2001/REC-SVG-20010904/DTD/svg10.dtd">
<svg version="1.0" xmlns="http://www.w3.org/2000/svg"
 width="700.000000pt" height="700.000000pt" viewBox="0 0 700.000000 700.000000"
 preserveAspectRatio="xMidYMid meet">
<metadata>
Created by potrace 1.11, written by Peter Selinger 2001-2013
</metadata>
<g transform="translate(0.000000,700.000000) scale(0.100000,-0.100000)"
fill="#000000" stroke="none">
<path d="M0 3500 l0 -3500 3500 0 3500 0 0 3500 0 3500 -3500 0 -3500 0 0
-3500z m4910 1350 l0 -360 -922 0 c-593 0 -946 -4 -987 -11 -89 -14 -151 -43
-199 -92 -51 -52 -73 -111 -73 -203 -1 -158 59 -249 196 -300 45 -17 101 -19
600 -25 578 -6 627 -10 800 -58 312 -87 574 -310 676 -575 54 -141 64 -201 63
-411 -1 -173 -3 -199 -27 -290 -111 -414 -417 -666 -897 -740 -79 -12 -266
-15 -1087 -15 l-993 0 0 365 0 365 1008 2 1007 3 55 22 c111 45 179 144 188
269 9 137 -50 247 -159 293 -108 47 -154 51 -644 51 -253 0 -509 5 -570 10
-294 28 -517 122 -686 292 -177 176 -264 388 -276 668 -24 564 267 951 802
1069 112 25 241 28 1163 30 l962 1 0 -360z"/>
</g>
</svg>
